<svg width="25" height="25" viewBox="0 0 25 25" fill="none" xmlns="http://www.w3.org/2000/svg">
<rect width="25" height="25" fill="white"/>
<path d="M12.5 19.2594C18.1091 19.2594 22.6562 16.2331 22.6562 12.5C22.6562 8.76688 18.1091 5.7406 12.5 5.7406C6.89086 5.7406 2.34375 8.76688 2.34375 12.5C2.34375 16.2331 6.89086 19.2594 12.5 19.2594Z" stroke="black" stroke-width="0.5" stroke-linecap="round" stroke-linejoin="round"/>
<path d="M5.05417 8.08856C6.10352 8.58888 7.22656 8.91704 8.38021 9.06044C9.18094 9.00589 9.97416 8.87101 10.7479 8.65783" stroke="black" stroke-width="0.5" stroke-linecap="round" stroke-linejoin="round"/>
<path d="M20.251 8.13231C19.46 8.67088 18.5172 8.94193 17.5609 8.90575C15.824 8.90575 14.3187 7.76044 12.7615 7.76044C11.3719 7.76044 9.01719 10.038 9.01719 10.45C9.01719 10.862 9.69948 11.1063 10.2526 10.8354C10.576 10.6776 11.9766 9.31773 13.1089 9.31773C14.2411 9.31773 17.9104 13.0344 18.2427 13.3834C18.7578 13.924 17.7604 15.0886 17.1234 14.4511C16.4865 13.8136 15.3474 12.8042 15.3474 12.8042" stroke="black" stroke-width="0.5" stroke-linecap="round" stroke-linejoin="round"/>
<path d="M22.6042 11.8141C21.0454 11.9978 19.5353 12.4735 18.1526 13.2162M16.9688 14.3C17.4839 14.8401 16.4865 16.0047 15.8495 15.3677C15.2125 14.7308 14.5052 14.0589 14.5052 14.0589" stroke="black" stroke-width="0.5" stroke-linecap="round" stroke-linejoin="round"/>
<path d="M15.6953 15.2161C16.2099 15.7562 15.2125 16.9208 14.5755 16.2838C13.9385 15.6469 13.5208 15.262 13.5208 15.262" stroke="black" stroke-width="0.5" stroke-linecap="round" stroke-linejoin="round"/>
<path d="M12.6052 16.3104C12.7249 16.4497 12.8749 16.5597 13.0437 16.6321C13.2125 16.7045 13.3956 16.7372 13.579 16.7279C13.7624 16.7185 13.9412 16.6673 14.1017 16.5782C14.2623 16.489 14.4003 16.3643 14.5052 16.2136" stroke="black" stroke-width="0.5" stroke-linecap="round" stroke-linejoin="round"/>
<path d="M12.6052 16.3104C12.8812 15.9474 12.8604 14.6531 11.4365 14.9104C11.7708 14.2755 11.4708 13.2719 10.1927 13.8635C10.1726 13.6788 10.0945 13.5052 9.96973 13.3675C9.84492 13.2299 9.67975 13.1353 9.49787 13.0972C9.316 13.0592 9.12675 13.0797 8.95723 13.1558C8.78771 13.2319 8.64662 13.3596 8.55417 13.5208C8.52784 13.3555 8.44754 13.2036 8.3258 13.0888C8.20406 12.9739 8.04772 12.9026 7.88119 12.886C7.71466 12.8693 7.5473 12.9083 7.40523 12.9967C7.26316 13.0852 7.15437 13.2182 7.09583 13.375C6.8125 13.95 7.25 14.9875 8.18542 14.4041C8.09062 15.4166 8.62292 15.7255 9.58333 15.3312C9.6349 16.326 10.2953 16.2401 10.7672 16.0083C10.8131 16.202 10.9154 16.3779 11.061 16.5136C11.2066 16.6494 11.3891 16.7391 11.5856 16.7714C11.7821 16.8037 11.9837 16.7771 12.1651 16.6951C12.3466 16.6131 12.4997 16.4792 12.6052 16.3104Z" stroke="black" stroke-width="0.5" stroke-linecap="round" stroke-linejoin="round"/>
<path d="M2.43229 11.6036C4.127 11.7308 5.75689 12.3087 7.15312 13.2776" stroke="black" stroke-width="0.5" stroke-linecap="round" stroke-linejoin="round"/>
</svg>
