<svg width="22" height="24" viewBox="0 0 22 24" fill="none" xmlns="http://www.w3.org/2000/svg">
<path d="M14.6433 17.963C14.8733 16.084 13.6633 14.886 10.4683 13.866C8.92026 13.338 8.19126 12.646 8.20826 11.695C8.27326 10.639 9.25626 9.87 10.5603 9.845C11.5872 9.85608 12.5888 10.1653 13.4433 10.735C13.5593 10.807 13.6403 10.795 13.7063 10.695C13.7963 10.551 14.0213 10.202 14.0963 10.075C14.1473 9.995 14.1573 9.889 14.0283 9.795C13.8433 9.658 13.3243 9.38 13.0453 9.263C12.2507 8.92671 11.3971 8.75198 10.5343 8.749C8.62426 8.757 7.12126 9.964 6.99426 11.575C6.91293 12.739 7.4896 13.6813 8.72427 14.402C8.98727 14.554 10.4043 15.118 10.9683 15.294C12.7423 15.846 13.6633 16.836 13.4463 17.991C13.2493 19.038 12.1473 19.715 10.6283 19.735C9.42526 19.689 8.34126 19.198 7.50126 18.545L7.36026 18.435C7.25626 18.355 7.14226 18.36 7.07326 18.465C7.02326 18.542 6.69726 19.012 6.61526 19.135C6.53826 19.243 6.58026 19.303 6.66026 19.369C7.01026 19.662 7.47726 19.982 7.79426 20.144C8.67232 20.5914 9.63827 20.8397 10.6233 20.871C11.3324 20.9047 12.0404 20.7839 12.6983 20.517C13.7933 20.052 14.5013 19.123 14.6433 17.963ZM10.7023 1.401C8.63426 1.401 6.94826 3.351 6.86926 5.791H14.5343C14.4533 3.35 12.7683 1.4 10.7023 1.4M18.5533 23.998L18.4733 23.999L2.68926 23.997C1.61526 23.957 0.826264 23.087 0.718264 22.006L0.708264 21.811L0.00126444 6.285C-0.00336967 6.22263 0.00476419 6.15997 0.025169 6.10084C0.0455738 6.04172 0.0778209 5.98738 0.119939 5.94114C0.162058 5.89491 0.213162 5.85775 0.27013 5.83193C0.327098 5.80612 0.388732 5.79219 0.451264 5.791H5.42626C5.54726 2.568 7.86226 0 10.7023 0C13.5423 0 15.8553 2.569 15.9773 5.79H20.9453C21.0075 5.79019 21.069 5.80301 21.1262 5.82767C21.1833 5.85233 21.2348 5.88833 21.2776 5.93348C21.3204 5.97863 21.3537 6.032 21.3753 6.09036C21.3968 6.14872 21.4064 6.21085 21.4033 6.273L20.6303 21.861L20.6233 21.992C20.5293 23.086 19.6443 23.969 18.5533 23.998Z" fill="white"/>
</svg>
